<svg width="21" height="24" viewBox="0 0 21 24" fill="none" xmlns="http://www.w3.org/2000/svg">
<g clip-path="url(#clip0_83_47)">
<path fill-rule="evenodd" clip-rule="evenodd" d="M20.7346 18C20.9 17.7109 21.0019 17.3828 21.0019 17.0898V6.91016C21.0019 6.61719 20.9 6.29102 20.7346 6L10.501 12L20.7346 18Z" fill="#3949AB"/>
<path fill-rule="evenodd" clip-rule="evenodd" d="M11.4104 23.7793L20.092 18.6895C20.342 18.543 20.5689 18.2891 20.7343 18L10.5007 12L0.26709 18C0.43249 18.2891 0.659434 18.543 0.909456 18.6895L9.59102 23.7793C10.0911 24.0723 10.9084 24.0723 11.4104 23.7793Z" fill="#283593"/>
<path fill-rule="evenodd" clip-rule="evenodd" d="M20.7346 6C20.5692 5.71094 20.3422 5.45703 20.0922 5.31055L11.4107 0.220703C10.9106 -0.0722656 10.0913 -0.0722656 9.59126 0.220703L0.909699 5.31055C0.409653 5.60352 0 6.32422 0 6.91016V17.0898C0 17.3828 0.101932 17.709 0.267332 18L10.501 12L20.7346 6Z" fill="#5C6BC0"/>
<path fill-rule="evenodd" clip-rule="evenodd" d="M10.5011 19.1094C6.64116 19.1094 3.50049 15.9199 3.50049 12C3.50049 8.08008 6.64116 4.89062 10.5011 4.89062C12.9917 4.89062 15.315 6.25195 16.5632 8.44336L13.5341 10.2246C12.909 9.12695 11.7474 8.44727 10.5011 8.44727C8.57018 8.44727 7.00081 10.041 7.00081 12.002C7.00081 13.9609 8.57018 15.5566 10.5011 15.5566C11.7474 15.5566 12.909 14.875 13.5341 13.7793L16.5632 15.5605C15.315 17.748 12.9917 19.1094 10.5011 19.1094Z" fill="white"/>
</g>
<defs>
<clipPath id="clip0_83_47">
<rect width="23" height="28" fill="white"/>
</clipPath>
</defs>
</svg>
