<svg width="24" height="27" viewBox="0 0 24 27" fill="none" xmlns="http://www.w3.org/2000/svg">
<g clip-path="url(#clip0_83_47)">
<path fill-rule="evenodd" clip-rule="evenodd" d="M23.6966 20.25C23.8856 19.9248 24.0021 19.5557 24.0021 19.2261V7.77393C24.0021 7.44434 23.8856 7.07739 23.6966 6.75L12.001 13.5L23.6966 20.25Z" fill="#3949AB"/>
<path fill-rule="evenodd" clip-rule="evenodd" d="M13.0409 26.7517L22.9627 21.0256C23.2484 20.8608 23.5078 20.5752 23.6968 20.25L12.0012 13.5L0.305664 20.25C0.494692 20.5752 0.754057 20.8608 1.0398 21.0256L10.9616 26.7517C11.5331 27.0813 12.4672 27.0813 13.0409 26.7517Z" fill="#283593"/>
<path fill-rule="evenodd" clip-rule="evenodd" d="M23.6967 6.74988C23.5076 6.42468 23.2483 6.13904 22.9625 5.97424L13.0408 0.248169C12.4693 -0.0814209 11.5329 -0.0814209 10.9614 0.248169L1.03966 5.97424C0.468175 6.30383 0 7.11462 0 7.7738V19.226C0 19.5555 0.116494 19.9225 0.305522 20.2499L12.0011 13.4999L23.6967 6.74988Z" fill="#5C6BC0"/>
<path fill-rule="evenodd" clip-rule="evenodd" d="M12.0012 21.498C7.58983 21.498 4.00049 17.9099 4.00049 13.5C4.00049 9.09009 7.58983 5.50195 12.0012 5.50195C14.8476 5.50195 17.5028 7.03345 18.9293 9.49878L15.4675 11.5027C14.7531 10.2678 13.4255 9.50317 12.0012 9.50317C9.79442 9.50317 8.00085 11.2961 8.00085 13.5022C8.00085 15.7061 9.79442 17.5012 12.0012 17.5012C13.4255 17.5012 14.7531 16.7344 15.4675 15.5017L18.9293 17.5056C17.5028 19.9666 14.8476 21.498 12.0012 21.498Z" fill="white"/>
</g>
<defs>
<clipPath id="clip0_83_47">
<rect width="24" height="27" fill="white"/>
</clipPath>
</defs>
</svg>
